<?xml version="1.0" encoding="UTF-8" standalone="no"?>
<svg
   xmlns:dc="http://purl.org/dc/elements/1.1/"
   xmlns:cc="http://creativecommons.org/ns#"
   xmlns:rdf="http://www.w3.org/1999/02/22-rdf-syntax-ns#"
   xmlns:svg="http://www.w3.org/2000/svg"
   xmlns="http://www.w3.org/2000/svg"
   id="svg1012"
   version="1.1"
   viewBox="0 0 139.02156 66.634819"
   height="66.634819mm"
   width="139.02156mm">
  <defs
     id="defs1006" />
  <metadata
     id="metadata1009">
    <rdf:RDF>
      <cc:Work
         rdf:about="">
        <dc:format>image/svg+xml</dc:format>
        <dc:type
           rdf:resource="http://purl.org/dc/dcmitype/StillImage" />
        <dc:title></dc:title>
      </cc:Work>
    </rdf:RDF>
  </metadata>
  <g
     transform="translate(-21.959454,-23.289734)"
     id="layer1">
    <g
       transform="translate(4.4020562)"
       id="g1602">
      <g
         id="g1589">
        <path
           d="m 91.545776,41.105014 v -4.40972 h -4.409721 -4.409731 v 4.40972 4.40972 h 4.409731 4.409721 z m -12.34721,11.1125 v -5.99722 h -7.231952 -7.231949 v -11.46528 -11.46528 h 22.225 22.225005 v 11.46528 11.46528 h -7.05556 -7.055555 v 5.99722 5.997321 h -7.9375 -7.937489 z"
           style="display:inline;fill:#0085c3;fill-opacity:1;stroke-width:0.35277778"
           id="path959" />
        <path
           id="path970"
           d="m 102.12887,46.220224 -7.055394,-3.97e-4 v 5.99743 5.99757 c 7.729434,0.406389 15.102444,1.583129 20.508064,3.07423 l 0.03,-15.16961 h -3.15102 c -3.44037,0.06631 -6.80911,0.100777 -10.33165,0.100777 z"
           style="display:inline;fill:#e08429;fill-opacity:1;stroke-width:0.35277778" />
        <path
           style="display:inline;fill:#e08429;fill-opacity:1;stroke-width:0.35277778"
           d="m 72.114225,46.219994 7.05539,-3.97e-4 v 5.99743 5.997569 c -7.729429,0.40639 -15.102451,1.583129 -20.508071,3.074231 l -0.03,-15.16961 h 3.151019 c 3.440382,0.0663 6.80912,0.10077 10.331661,0.10077 z"
           id="path977" />
        <path
           id="path943"
           d="m 36.841525,62.165974 5.102679,-1.96074 0.0236,7.417782 z"
           style="display:inline;fill:#fcdb00;fill-opacity:1;stroke:none;stroke-width:0.26458332px;stroke-linecap:butt;stroke-linejoin:miter;stroke-opacity:1" />
        <path
           id="path945"
           d="m 45.251495,58.953175 5.10268,-1.960742 0.0236,7.417782 z"
           style="display:inline;fill:#fcdb00;fill-opacity:1;stroke:none;stroke-width:0.26458332px;stroke-linecap:butt;stroke-linejoin:miter;stroke-opacity:1" />
        <path
           style="display:inline;fill:#fcdb00;fill-opacity:1;stroke:none;stroke-width:0.26458332px;stroke-linecap:butt;stroke-linejoin:miter;stroke-opacity:1"
           d="m 137.62392,62.165511 -5.10268,-1.96074 -0.0236,7.417782 z"
           id="path947" />
        <path
           style="display:inline;fill:#fcdb00;fill-opacity:1;stroke:none;stroke-width:0.26458332px;stroke-linecap:butt;stroke-linejoin:miter;stroke-opacity:1"
           d="m 129.21395,58.952713 -5.10268,-1.960743 -0.0236,7.417782 z"
           id="path949" />
        <path
           id="path957"
           d="M 36.512445,71.424105 C 61.517454,56.234383 110.83227,54.775717 137.0533,71.344804 107.01574,60.819925 70.825064,60.718325 36.512445,71.424105 Z"
           style="display:inline;fill:#5bb545;fill-opacity:1;stroke-width:0.35277778" />
      </g>
      <g
         id="text953"
         style="font-style:normal;font-variant:normal;font-weight:bold;font-stretch:normal;font-size:16.88196564px;line-height:1.25;font-family:Onyx;-inkscape-font-specification:'Onyx Bold';letter-spacing:0px;word-spacing:0px;display:inline;fill:#000000;fill-opacity:1;stroke:none;stroke-width:0.19783555"
         aria-label="Escuela Politécnica Superior">
        <path
           id="path1604"
           style="font-style:normal;font-variant:normal;font-weight:bold;font-stretch:normal;font-family:Arquitectura;-inkscape-font-specification:'Arquitectura Bold';stroke-width:0.19783555"
           d="m 22.71289,74.497033 h -2.830975 v 5.181465 h 2.662156 v 1.311598 h -2.623198 v 3.882853 h 2.623198 v 1.311598 h -3.934797 v -5.194451 h -1.051876 l 0.454514,-1.298612 h 0.597362 v -6.50605 h 3.636116 z" />
        <path
           id="path1606"
           style="font-style:normal;font-variant:normal;font-weight:bold;font-stretch:normal;font-family:Arquitectura;-inkscape-font-specification:'Arquitectura Bold';stroke-width:0.19783555"
           d="m 26.498245,79.029191 -0.584376,0.57139 q -0.285694,0.259722 -0.376597,0.350625 -0.07792,0.0909 -0.181806,0.33764 -0.103889,0.246736 -0.103889,0.506459 0,0.480486 0.389584,0.947987 l 0.272708,0.324653 q 0.714237,0.857084 0.714237,1.766113 0,0.532432 -0.168819,0.909029 -0.155834,0.376598 -0.311667,0.584376 -0.142848,0.194792 -0.545418,0.545417 l -0.662292,0.610348 -0.947988,-0.922015 0.597362,-0.545417 q 0.33764,-0.311667 0.506459,-0.532431 0.16882,-0.220764 0.207778,-0.532431 0,-0.675279 -0.4675,-1.194724 L 24.53734,82.444543 q -0.324653,-0.33764 -0.493473,-0.766182 -0.16882,-0.441528 -0.16882,-0.87007 0,-0.753196 0.324654,-1.285627 0.324653,-0.545417 0.610348,-0.792154 l 0.753195,-0.675278 z" />
        <path
           id="path1608"
           style="font-style:normal;font-variant:normal;font-weight:bold;font-stretch:normal;font-family:Arquitectura;-inkscape-font-specification:'Arquitectura Bold';stroke-width:0.19783555"
           d="m 31.515861,78.626621 -0.467501,1.272641 q -0.116875,-0.06493 -0.246736,-0.129862 -0.116875,-0.07792 -0.337639,-0.07792 -0.714237,0 -1.038891,0.792153 -0.311667,0.779168 -0.311667,1.805072 0,1.03889 0.298681,1.831044 0.298681,0.779168 0.999932,0.779168 0.246736,0 0.389584,-0.06493 0.142847,-0.07792 0.246736,-0.142847 l 0.454515,1.298613 q -0.428542,0.272708 -0.623334,0.337639 -0.194792,0.06493 -0.467501,0.06493 -1.376529,0 -1.973891,-1.207709 -0.597362,-1.220696 -0.597362,-2.921879 0,-1.67521 0.597362,-2.856948 0.610348,-1.194724 1.973891,-1.194724 0.363612,0 0.467501,0.03896 0.103889,0.02597 0.63632,0.376597 z" />
        <path
           id="path1610"
           style="font-style:normal;font-variant:normal;font-weight:bold;font-stretch:normal;font-family:Arquitectura;-inkscape-font-specification:'Arquitectura Bold';stroke-width:0.19783555"
           d="m 37.351705,83.756142 q 0,1.324585 -0.649306,1.999863 -0.649307,0.675279 -1.662225,0.675279 -1.155765,0 -1.818057,-0.675279 Q 32.57281,85.06774 32.57281,83.717183 V 78.32794 h 1.181738 v 4.636048 q 0,0.999932 0.194792,1.545349 0.207778,0.532431 1.012918,0.532431 0.766181,0 0.986945,-0.558403 0.220764,-0.558404 0.220764,-1.519377 V 78.32794 h 1.181738 z" />
        <path
           id="path1612"
           style="font-style:normal;font-variant:normal;font-weight:bold;font-stretch:normal;font-family:Arquitectura;-inkscape-font-specification:'Arquitectura Bold';stroke-width:0.19783555"
           d="m 43.673412,80.964124 -2.311531,2.311531 -0.922015,-0.883057 1.831044,-1.805071 -0.07792,-0.181806 q -0.142848,-0.324653 -0.40257,-0.519445 -0.246737,-0.194792 -0.558404,-0.194792 -0.753195,0 -1.051876,0.766181 -0.298681,0.766182 -0.298681,1.831044 0,1.03889 0.298681,1.831044 0.298681,0.779168 1.012918,0.779168 0.246736,0 0.480487,-0.103889 0.246736,-0.116875 0.389583,-0.350626 l 0.103889,-0.168819 1.14278,0.675278 -0.181806,0.285695 q -0.324653,0.532431 -0.844098,0.870071 -0.506459,0.337639 -1.090835,0.337639 -1.324585,0 -1.960905,-1.259654 -0.623335,-1.259655 -0.623335,-2.921879 0,-1.67521 0.597362,-2.856948 0.610348,-1.194724 1.986878,-1.194724 0.973959,0 1.597293,0.701251 0.623335,0.701251 0.818126,1.714169 z" />
        <path
           id="path1614"
           style="font-style:normal;font-variant:normal;font-weight:bold;font-stretch:normal;font-family:Arquitectura;-inkscape-font-specification:'Arquitectura Bold';stroke-width:0.19783555"
           d="M 46.238071,86.184547 H 45.06932 V 72.081613 h 1.168751 z" />
        <path
           id="path1616"
           style="font-style:normal;font-variant:normal;font-weight:bold;font-stretch:normal;font-family:Arquitectura;-inkscape-font-specification:'Arquitectura Bold';stroke-width:0.19783555"
           d="m 52.730931,86.184547 h -1.20771 V 85.47031 l -0.181806,0.220765 q -0.272708,0.337639 -0.519445,0.506459 -0.246736,0.181805 -0.558403,0.181805 -0.05195,0 -0.740209,-0.155833 -0.675279,-0.142848 -1.155766,-1.220696 -0.480486,-1.077849 -0.480486,-2.597226 0,-1.649238 0.545417,-2.960837 0.558403,-1.324585 1.67521,-1.324585 0.714237,0 1.194724,0.532432 l 0.259723,0.285694 v -0.571389 h 1.168751 z m -1.077849,-3.895838 q 0,-1.285626 -0.207778,-1.973891 -0.207778,-0.688265 -1.116807,-0.688265 -0.597361,0 -0.922015,0.870071 -0.311667,0.857084 -0.311667,1.84403 0,1.50639 0.376598,2.012849 0.376598,0.493473 0.675279,0.532432 0.311667,0.03896 0.441528,0.03896 0.740209,0 0.896043,-0.610348 0.168819,-0.610348 0.168819,-2.025836 z" />
        <path
           id="path1618"
           style="font-style:normal;font-variant:normal;font-weight:bold;font-stretch:normal;font-family:Arquitectura;-inkscape-font-specification:'Arquitectura Bold';stroke-width:0.19783555"
           d="m 62.65771,77.068286 q 0,2.376461 -0.623334,3.129657 -0.623334,0.753195 -2.116739,0.753195 H 59.37222 v 5.233409 H 58.112566 V 73.185434 h 1.688196 q 1.493405,0 2.168684,0.818126 0.688264,0.818126 0.688264,3.064726 z m -1.298612,0 q 0,-1.480419 -0.389584,-2.025836 -0.376598,-0.545417 -1.298613,-0.545417 H 59.37222 v 5.181465 h 0.259723 q 0.960973,0 1.337571,-0.493473 0.389584,-0.506459 0.389584,-2.116739 z" />
        <path
           id="path1620"
           style="font-style:normal;font-variant:normal;font-weight:bold;font-stretch:normal;font-family:Arquitectura;-inkscape-font-specification:'Arquitectura Bold';stroke-width:0.19783555"
           d="m 68.893386,82.171834 q 0,1.792086 -0.558404,2.999795 -0.545417,1.194724 -2.01285,1.194724 -1.532363,0 -2.116738,-1.181737 -0.584376,-1.194724 -0.584376,-2.947851 0,-1.727155 0.584376,-2.921879 0.584375,-1.194724 2.038822,-1.194724 1.194723,0 1.921946,0.883057 0.727224,0.870071 0.727224,3.168615 z m -1.233683,0 q 0,-1.116807 -0.272708,-1.805072 -0.259723,-0.701251 -1.129793,-0.701251 -0.779168,0 -1.103821,0.766182 -0.311667,0.766181 -0.311667,1.857016 0,1.051877 0.298681,1.857016 0.298681,0.80514 1.142779,0.80514 0.623334,0 0.999932,-0.623334 0.376597,-0.623334 0.376597,-2.155697 z" />
        <path
           id="path1622"
           style="font-style:normal;font-variant:normal;font-weight:bold;font-stretch:normal;font-family:Arquitectura;-inkscape-font-specification:'Arquitectura Bold';stroke-width:0.19783555"
           d="M 71.692911,86.184547 H 70.52416 V 72.081613 h 1.168751 z" />
        <path
           id="path1624"
           style="font-style:normal;font-variant:normal;font-weight:bold;font-stretch:normal;font-family:Arquitectura;-inkscape-font-specification:'Arquitectura Bold';stroke-width:0.19783555"
           d="m 75.250908,74.497033 -0.675279,1.934933 -0.779167,-1.934933 z m -0.0909,11.687514 h -1.259654 v -7.804662 h 1.259654 z" />
        <path
           id="path1626"
           style="font-style:normal;font-variant:normal;font-weight:bold;font-stretch:normal;font-family:Arquitectura;-inkscape-font-specification:'Arquitectura Bold';stroke-width:0.19783555"
           d="m 80.494155,78.392871 -0.389583,1.090835 h -1.129793 v 6.700841 h -1.168752 v -6.700841 h -1.142779 l 0.337639,-1.077849 h 0.80514 v -6.324244 h 1.168752 v 6.311258 z" />
        <path
           id="path1628"
           style="font-style:normal;font-variant:normal;font-weight:bold;font-stretch:normal;font-family:Arquitectura;-inkscape-font-specification:'Arquitectura Bold';stroke-width:0.19783555"
           d="m 86.241024,80.964124 -2.311531,2.311531 -0.922015,-0.883057 1.831044,-1.805071 -0.07792,-0.181806 q -0.142847,-0.324653 -0.40257,-0.519445 -0.246736,-0.194792 -0.558403,-0.194792 -0.753196,0 -1.051876,0.766181 -0.298681,0.766182 -0.298681,1.831044 0,1.03889 0.298681,1.831044 0.29868,0.779168 1.012917,0.779168 0.246737,0 0.480487,-0.103889 0.246737,-0.116875 0.389584,-0.350626 l 0.103889,-0.168819 1.142779,0.675278 -0.181806,0.285695 q -0.324653,0.532431 -0.844098,0.870071 -0.506459,0.337639 -1.090835,0.337639 -1.324585,0 -1.960905,-1.259654 -0.623334,-1.259655 -0.623334,-2.921879 0,-1.67521 0.597362,-2.856948 0.610348,-1.194724 1.986877,-1.194724 0.97396,0 1.597294,0.701251 0.623334,0.701251 0.818126,1.714169 z m -0.714237,-5.635979 -2.869934,2.194655 1.792085,-2.986809 z" />
        <path
           id="path1630"
           style="font-style:normal;font-variant:normal;font-weight:bold;font-stretch:normal;font-family:Arquitectura;-inkscape-font-specification:'Arquitectura Bold';stroke-width:0.19783555"
           d="m 90.899497,78.626621 -0.4675,1.272641 q -0.116875,-0.06493 -0.246737,-0.129862 -0.116875,-0.07792 -0.337639,-0.07792 -0.714237,0 -1.03889,0.792153 -0.311667,0.779168 -0.311667,1.805072 0,1.03889 0.298681,1.831044 0.298681,0.779168 0.999931,0.779168 0.246737,0 0.389584,-0.06493 0.142848,-0.07792 0.246737,-0.142847 l 0.454514,1.298613 q -0.428542,0.272708 -0.623334,0.337639 -0.194792,0.06493 -0.467501,0.06493 -1.376529,0 -1.973891,-1.207709 -0.597362,-1.220696 -0.597362,-2.921879 0,-1.67521 0.597362,-2.856948 0.610348,-1.194724 1.973891,-1.194724 0.363612,0 0.467501,0.03896 0.103889,0.02597 0.63632,0.376597 z" />
        <path
           id="path1632"
           style="font-style:normal;font-variant:normal;font-weight:bold;font-stretch:normal;font-family:Arquitectura;-inkscape-font-specification:'Arquitectura Bold';stroke-width:0.19783555"
           d="m 96.709368,86.184547 h -1.155765 v -4.246463 -0.285695 q 0,-0.831112 -0.194792,-1.415488 -0.181806,-0.584376 -0.80514,-0.584376 -0.753195,0 -1.090835,0.57139 -0.337639,0.558403 -0.337639,1.584307 v 4.376325 h -1.168751 v -8.01244 h 1.168751 v 0.779167 l 0.181806,-0.142847 q 0.246736,-0.194792 0.376598,-0.285695 0.142847,-0.0909 0.350625,-0.194792 0.220764,-0.116875 0.350626,-0.142847 0.142847,-0.02597 0.311667,-0.02597 0.246736,0 0.454514,0.05194 0.207778,0.05194 0.623334,0.23375 0.415556,0.181806 0.675279,0.792154 0.259722,0.597362 0.259722,2.233614 z" />
        <path
           id="path1634"
           style="font-style:normal;font-variant:normal;font-weight:bold;font-stretch:normal;font-family:Arquitectura;-inkscape-font-specification:'Arquitectura Bold';stroke-width:0.19783555"
           d="m 99.881428,74.497033 -0.675279,1.934933 -0.779168,-1.934933 z m -0.0909,11.687514 H 98.53087 v -7.804662 h 1.259655 z" />
        <path
           id="path1636"
           style="font-style:normal;font-variant:normal;font-weight:bold;font-stretch:normal;font-family:Arquitectura;-inkscape-font-specification:'Arquitectura Bold';stroke-width:0.19783555"
           d="m 105.17663,78.626621 -0.4675,1.272641 q -0.11688,-0.06493 -0.24674,-0.129862 -0.11687,-0.07792 -0.33764,-0.07792 -0.71424,0 -1.03889,0.792153 -0.31167,0.779168 -0.31167,1.805072 0,1.03889 0.29868,1.831044 0.29869,0.779168 0.99994,0.779168 0.24673,0 0.38958,-0.06493 0.14285,-0.07792 0.24674,-0.142847 l 0.45451,1.298613 q -0.42854,0.272708 -0.62333,0.337639 -0.19479,0.06493 -0.4675,0.06493 -1.37653,0 -1.97389,-1.207709 -0.59737,-1.220696 -0.59737,-2.921879 0,-1.67521 0.59737,-2.856948 0.61034,-1.194724 1.97389,-1.194724 0.36361,0 0.4675,0.03896 0.10389,0.02597 0.63632,0.376597 z" />
        <path
           id="path1638"
           style="font-style:normal;font-variant:normal;font-weight:bold;font-stretch:normal;font-family:Arquitectura;-inkscape-font-specification:'Arquitectura Bold';stroke-width:0.19783555"
           d="m 110.96053,86.184547 h -1.20771 V 85.47031 l -0.18181,0.220765 q -0.27271,0.337639 -0.51944,0.506459 -0.24674,0.181805 -0.55841,0.181805 -0.0519,0 -0.74021,-0.155833 -0.67528,-0.142848 -1.15576,-1.220696 -0.48049,-1.077849 -0.48049,-2.597226 0,-1.649238 0.54542,-2.960837 0.5584,-1.324585 1.67521,-1.324585 0.71424,0 1.19472,0.532432 l 0.25972,0.285694 v -0.571389 h 1.16876 z m -1.07785,-3.895838 q 0,-1.285626 -0.20778,-1.973891 -0.20778,-0.688265 -1.11681,-0.688265 -0.59736,0 -0.92201,0.870071 -0.31167,0.857084 -0.31167,1.84403 0,1.50639 0.3766,2.012849 0.3766,0.493473 0.67528,0.532432 0.31166,0.03896 0.44153,0.03896 0.7402,0 0.89604,-0.610348 0.16882,-0.610348 0.16882,-2.025836 z" />
        <path
           id="path1640"
           style="font-style:normal;font-variant:normal;font-weight:bold;font-stretch:normal;font-family:Arquitectura;-inkscape-font-specification:'Arquitectura Bold';stroke-width:0.19783555"
           d="m 119.91335,73.977588 -1.18174,0.4675 q -0.41556,0.155834 -0.8441,0.597362 -0.42854,0.428542 -0.42854,1.20771 0,0.428542 0.16882,0.818126 l 2.05181,4.817853 q 0.2727,0.623334 0.2727,1.246668 0,0.57139 -0.24673,1.129794 -0.23375,0.558403 -0.72723,1.090834 -0.48048,0.519445 -1.18173,0.779168 l -1.1298,0.441528 -0.4675,-1.220696 1.11681,-0.428542 q 0.44153,-0.155833 0.70125,-0.40257 0.25972,-0.246736 0.45452,-0.688265 0.19479,-0.454514 0.19479,-0.831112 0,-0.337639 -0.16882,-0.714237 l -2.07778,-4.752922 q -0.12986,-0.285695 -0.19479,-0.610348 -0.0649,-0.324654 -0.0649,-0.623335 0,-0.727223 0.35062,-1.402501 0.35063,-0.675279 0.79215,-1.025904 0.44153,-0.363612 0.58438,-0.454515 0.15583,-0.0909 0.40257,-0.181806 l 1.15577,-0.4675 z" />
        <path
           id="path1642"
           style="font-style:normal;font-variant:normal;font-weight:bold;font-stretch:normal;font-family:Arquitectura;-inkscape-font-specification:'Arquitectura Bold';stroke-width:0.19783555"
           d="m 125.94906,83.756142 q 0,1.324585 -0.64931,1.999863 -0.64931,0.675279 -1.66223,0.675279 -1.15576,0 -1.81805,-0.675279 -0.64931,-0.688265 -0.64931,-2.038822 V 78.32794 h 1.18174 v 4.636048 q 0,0.999932 0.19479,1.545349 0.20778,0.532431 1.01292,0.532431 0.76618,0 0.98694,-0.558403 0.22077,-0.558404 0.22077,-1.519377 V 78.32794 h 1.18174 z" />
        <path
           id="path1644"
           style="font-style:normal;font-variant:normal;font-weight:bold;font-stretch:normal;font-family:Arquitectura;-inkscape-font-specification:'Arquitectura Bold';stroke-width:0.19783555"
           d="m 132.28375,82.249751 q 0,2.220628 -0.62334,3.11667 -0.61035,0.896043 -1.20771,0.947988 -0.59736,0.05194 -0.70125,0.05194 -0.0909,0.01299 -0.14285,0.01299 -0.27271,0 -0.45451,-0.06493 -0.18181,-0.05195 -0.35063,-0.233751 l -0.25972,-0.272708 v 4.116602 h -1.16875 V 78.185093 h 1.19472 v 0.714237 l 0.19479,-0.220764 q 0.46751,-0.545418 1.10383,-0.545418 1.31159,0 1.85701,1.246669 0.55841,1.233682 0.55841,2.869934 z m -1.23369,0.06493 q 0,-1.532363 -0.28569,-2.090766 -0.27271,-0.558404 -0.99993,-0.558404 -0.10389,-0.01299 -0.15584,-0.01299 -0.57139,0 -0.87007,0.506459 -0.28569,0.506459 -0.28569,2.207642 0,1.259654 0.19479,1.908961 0.19479,0.649306 1.10382,0.649306 0.74021,0 1.01292,-0.753195 0.28569,-0.766182 0.28569,-1.857017 z" />
        <path
           id="path1646"
           style="font-style:normal;font-variant:normal;font-weight:bold;font-stretch:normal;font-family:Arquitectura;-inkscape-font-specification:'Arquitectura Bold';stroke-width:0.19783555"
           d="m 138.33771,80.964124 -2.31153,2.311531 -0.92201,-0.883057 1.83104,-1.805071 -0.0779,-0.181806 q -0.14285,-0.324653 -0.40257,-0.519445 -0.24674,-0.194792 -0.55841,-0.194792 -0.75319,0 -1.05187,0.766181 -0.29868,0.766182 -0.29868,1.831044 0,1.03889 0.29868,1.831044 0.29868,0.779168 1.01291,0.779168 0.24674,0 0.48049,-0.103889 0.24674,-0.116875 0.38959,-0.350626 l 0.10388,-0.168819 1.14278,0.675278 -0.1818,0.285695 q -0.32466,0.532431 -0.8441,0.870071 -0.50646,0.337639 -1.09084,0.337639 -1.32458,0 -1.9609,-1.259654 -0.62333,-1.259655 -0.62333,-2.921879 0,-1.67521 0.59736,-2.856948 0.61035,-1.194724 1.98687,-1.194724 0.97396,0 1.5973,0.701251 0.62333,0.701251 0.81812,1.714169 z" />
        <path
           id="path1648"
           style="font-style:normal;font-variant:normal;font-weight:bold;font-stretch:normal;font-family:Arquitectura;-inkscape-font-specification:'Arquitectura Bold';stroke-width:0.19783555"
           d="m 142.49967,78.288982 -0.42855,1.298613 -0.10389,0.01299 q -0.2727,0.03896 -0.41555,0.0909 -0.14285,0.05194 -0.33764,0.259722 -0.19479,0.194792 -0.36361,0.792154 -0.16882,0.584376 -0.16882,1.324585 v 4.116602 h -1.16875 v -7.804662 h 1.16875 v 1.20771 l 0.0779,-0.116875 q 0.27271,-0.428543 0.35063,-0.532432 0.0779,-0.116875 0.23375,-0.259722 0.16882,-0.155834 0.4675,-0.259723 0.29868,-0.116875 0.50646,-0.116875 z" />
        <path
           id="path1650"
           style="font-style:normal;font-variant:normal;font-weight:bold;font-stretch:normal;font-family:Arquitectura;-inkscape-font-specification:'Arquitectura Bold';stroke-width:0.19783555"
           d="m 145.18577,74.497033 -0.67528,1.934933 -0.77916,-1.934933 z m -0.0909,11.687514 h -1.25966 v -7.804662 h 1.25966 z" />
        <path
           id="path1652"
           style="font-style:normal;font-variant:normal;font-weight:bold;font-stretch:normal;font-family:Arquitectura;-inkscape-font-specification:'Arquitectura Bold';stroke-width:0.19783555"
           d="m 152.18215,82.171834 q 0,1.792086 -0.55841,2.999795 -0.54541,1.194724 -2.01285,1.194724 -1.53236,0 -2.11674,-1.181737 -0.58437,-1.194724 -0.58437,-2.947851 0,-1.727155 0.58437,-2.921879 0.58438,-1.194724 2.03883,-1.194724 1.19472,0 1.92194,0.883057 0.72723,0.870071 0.72723,3.168615 z m -1.23369,0 q 0,-1.116807 -0.2727,-1.805072 -0.25973,-0.701251 -1.1298,-0.701251 -0.77916,0 -1.10382,0.766182 -0.31167,0.766181 -0.31167,1.857016 0,1.051877 0.29869,1.857016 0.29868,0.80514 1.14278,0.80514 0.62333,0 0.99993,-0.623334 0.37659,-0.623334 0.37659,-2.155697 z" />
        <path
           id="path1654"
           style="font-style:normal;font-variant:normal;font-weight:bold;font-stretch:normal;font-family:Arquitectura;-inkscape-font-specification:'Arquitectura Bold';stroke-width:0.19783555"
           d="m 156.57897,78.288982 -0.42855,1.298613 -0.10389,0.01299 q -0.2727,0.03896 -0.41555,0.0909 -0.14285,0.05194 -0.33764,0.259722 -0.19479,0.194792 -0.36361,0.792154 -0.16882,0.584376 -0.16882,1.324585 v 4.116602 h -1.16875 v -7.804662 h 1.16875 v 1.20771 l 0.0779,-0.116875 q 0.27271,-0.428543 0.35063,-0.532432 0.0779,-0.116875 0.23375,-0.259722 0.16882,-0.155834 0.4675,-0.259723 0.29868,-0.116875 0.50646,-0.116875 z" />
      </g>
    </g>
  </g>
</svg>
